<?xml version="1.0" encoding="utf-8"?>
<!-- Generator: Adobe Illustrator 17.1.0, SVG Export Plug-In . SVG Version: 6.00 Build 0)  -->
<!DOCTYPE svg PUBLIC "-//W3C//DTD SVG 1.1//EN" "http://www.w3.org/Graphics/SVG/1.1/DTD/svg11.dtd">
<svg version="1.1" id="Layer_1" xmlns="http://www.w3.org/2000/svg" xmlns:xlink="http://www.w3.org/1999/xlink" x="0px" y="0px"
	 width="185" height="35" viewBox="0 -5 185 35" enable-background="new 0 -5 185 35" xml:space="preserve">
<g>
	<path fill="#FFFFFF" d="M91.9,3.2c-0.5,0-0.9,0.4-0.9,0.9c0,0.5,0.4,0.9,0.9,0.9c0.5,0,0.9-0.4,0.9-0.9C92.9,3.7,92.5,3.2,91.9,3.2
		"/>
	<path fill="#FFFFFF" d="M155.3,3.2c-0.5,0-0.9,0.4-0.9,0.9c0,0.5,0.4,0.9,0.9,0.9c0.5,0,0.9-0.4,0.9-0.9
		C156.3,3.7,155.9,3.2,155.3,3.2"/>
	<path fill="#FFFFFF" d="M145.4,9.9c0-1.3,1.2-1.9,2.4-1.9c2,0,3,1.1,3,1.1l0.7-1.2c0,0-1.2-1.3-3.7-1.3c-2.2,0-4.1,1.2-4.1,3.3
		c0,3.9,6.5,3.3,6.5,5.9c0,1.3-1.1,1.9-2.4,1.9c-2.2,0-3.6-1.5-3.6-1.5l-0.9,1.2c0,0,1.5,1.7,4.4,1.7c2.4,0,4.1-1.4,4.1-3.4
		C151.9,11.8,145.4,12.5,145.4,9.9"/>
	<rect x="154.4" y="6.9" fill="#FFFFFF" width="1.6" height="12"/>
	<path fill="#FFFFFF" d="M139.2,12.6c0,2.6-1.7,5-4.4,5c-2.3,0-2.6-1.7-2.6-3.5V6.9h-1.6v7.6c0,3.1,1.2,4.6,4,4.6
		c2.6,0,4.2-1.8,4.7-3.1h0c0,0,0,0.5,0,1v1.8h1.4v-12h-1.6L139.2,12.6L139.2,12.6z"/>
	<path fill="#FFFFFF" d="M179.8,6.6c-2.8,0-4.4,1.9-4.8,3h0c0,0-0.1-0.4-0.1-0.9V6.9h-1.4v12h1.4v-5.8c0-0.6,0.1-1.1,0.3-1.6
		c0.6-2,2.3-3.4,4.3-3.4c2.3,0,2.6,1.7,2.6,3.5v7.2h1.8v-7.7C183.8,8.3,182.7,6.6,179.8,6.6"/>
	<path fill="#FFFFFF" d="M165,17.7c-2.6,0-4.7-2.1-4.7-4.9c0-2.7,2.1-4.7,4.7-4.7s4.7,2,4.7,4.7C169.6,15.6,167.5,17.7,165,17.7
		 M165,6.6c-3.5,0-6.3,2.7-6.3,6.2c0,3.6,2.8,6.3,6.3,6.3s6.3-2.7,6.3-6.3C171.3,9.2,168.5,6.6,165,6.6"/>
	<path fill="#FFFFFF" d="M43,17.6c-2.5,0-3.8-2.4-3.8-4.8c0-3.4,1.9-4.9,3.9-4.9c2.3,0,3.8,1.9,3.8,4.8C46.9,15.8,45.1,17.6,43,17.6
		 M43.3,6.3c-3.2,0-4.2,2.4-4.2,2.4h0c0,0,0-0.3,0-0.9V6.5h-1.6v17l1.8-0.9v-4.8c0-0.6-0.1-1.2-0.1-1.2h0c0,0,1.1,2.4,4,2.4
		c3.1,0,5.4-2.5,5.4-6.3C48.6,8.9,46.6,6.3,43.3,6.3"/>
	<path fill="#FFFFFF" d="M108.7,11.5c0.4-2.3,2.1-3.7,4.1-3.7c1.8,0,3.3,1.3,3.4,3.7H108.7z M112.9,6.6c-3.2,0-5.9,2.4-5.9,6.3
		c0,3.7,2.7,6.3,6.3,6.3c2.7,0,4.4-1.7,4.4-1.7l-0.7-1.2c0,0-1.5,1.5-3.6,1.5c-2.5,0-4.6-1.7-4.7-4.7h9.2c0,0,0-0.6,0-0.9
		C117.9,9.1,116.2,6.6,112.9,6.6"/>
	<path fill="#FFFFFF" d="M85.2,14.3v-6h2.9V7.1h-2.9V3.3l-1.6,0.9v2.9H82v1.3h1.6v6.2c0,4,2.8,4.4,4.2,4.4c0.4,0,0.7,0,0.7,0v-1.5
		c0,0-0.2,0-0.5,0C87,17.5,85.2,17.1,85.2,14.3"/>
	<path fill="#FFFFFF" d="M76,17.7c-2.6,0-4.7-2-4.7-4.8c0-2.9,2.1-4.8,4.7-4.8c2.2,0,3.5,1.5,3.5,1.5l0.8-1.2c0,0-1.5-1.7-4.4-1.7
		c-3.5,0-6.3,2.6-6.3,6.3c0,3.7,2.7,6.3,6.3,6.3c3.1,0,4.7-1.9,4.7-1.9L79.9,16C79.9,16,78.5,17.7,76,17.7"/>
	<path fill="#FFFFFF" d="M52.6,9.9L52.6,9.9c0,0,0-0.4,0-1V6.9H51v12h1.6v-5.1c0-0.8,0.1-1.6,0.4-2.3c0.5-1.8,1.8-3.1,3.5-3.1
		c0.3,0,0.6,0,0.6,0V6.8c0,0-0.3-0.1-0.6-0.1C54.5,6.8,53.2,8.1,52.6,9.9"/>
	<path fill="#FFFFFF" d="M66,13.3c0,2.1-1.4,4.4-3.7,4.4c-1.8,0-2.7-1.1-2.7-2.2c0-2.6,3.8-2.7,5.7-2.7H66V13.3z M63.2,6.6
		c-2.7,0-4.3,1.4-4.3,1.4l0.8,1.2c0,0,1.4-1.1,3.4-1.1c1.7,0,3,0.8,3,3.1v0.4h-0.6c-2.1,0-7.3,0-7.3,4.1c0,2.4,2.1,3.5,4.1,3.5
		c3,0,4-2.6,4-2.6h0c0,0-0.2,0.4-0.2,1v1.4h1.6v-7.7C67.6,8.2,66.1,6.6,63.2,6.6"/>
	<rect x="90.9" y="6.9" fill="#FFFFFF" width="1.8" height="12"/>
	<path fill="#FFFFFF" d="M101.2,17.7c-2.6,0-4.7-2-4.7-4.8c0-2.9,2.1-4.8,4.7-4.8c2.2,0,3.5,1.5,3.5,1.5l0.8-1.2
		c0,0-1.5-1.7-4.4-1.7c-3.5,0-6.3,2.6-6.3,6.3c0,3.7,2.7,6.3,6.3,6.3c3.1,0,4.7-1.9,4.7-1.9l-0.7-1.3
		C105.1,16,103.7,17.7,101.2,17.7"/>
	<path fill="#FFFFFF" d="M123.6,6.4v0.6H122v1.2h1.6v10.6h1.6V8.3h3.1V7.1h-3.1V6.4c0-2.7,1.7-3,2.7-3c0.3,0,0.6,0,0.6,0V2
		c0,0-0.3,0-0.7,0C126.3,2,123.6,2.5,123.6,6.4"/>
	<polygon fill="#FFFFFF" points="16.4,20.1 23.4,24.1 23.4,16.6 16.4,12.6 	"/>
	<polygon fill="#FFFFFF" points="2.2,20.1 9.2,24.1 9.2,16.6 2.2,12.6 	"/>
	<g opacity="0.85">
		<g>
			<g>
				<defs>
					<rect id="SVGID_1_" x="9.2" y="12.6" width="7.1" height="11.4"/>
				</defs>
				<clipPath id="SVGID_2_">
					<use xlink:href="#SVGID_1_"  overflow="visible"/>
				</clipPath>
				<polygon clip-path="url(#SVGID_2_)" fill="#FFFFFF" points="9.2,16.6 9.2,24.1 16.4,20.1 16.4,12.6 				"/>
			</g>
		</g>
	</g>
	<g opacity="0.85">
		<g>
			<g>
				<defs>
					<rect id="SVGID_3_" x="23.4" y="12.6" width="7.1" height="11.4"/>
				</defs>
				<clipPath id="SVGID_4_">
					<use xlink:href="#SVGID_3_"  overflow="visible"/>
				</clipPath>
				<polygon clip-path="url(#SVGID_4_)" fill="#FFFFFF" points="23.4,16.6 23.4,24.1 30.5,20.1 30.5,12.6 				"/>
			</g>
		</g>
	</g>
	<g opacity="0.85">
		<g>
			<g>
				<defs>
					<rect id="SVGID_5_" x="12.1" y="2.3" width="8.5" height="2.4"/>
				</defs>
				<clipPath id="SVGID_6_">
					<use xlink:href="#SVGID_5_"  overflow="visible"/>
				</clipPath>
				<polygon clip-path="url(#SVGID_6_)" fill="#FFFFFF" points="16.3,4.7 20.6,2.3 12.1,2.3 				"/>
			</g>
		</g>
	</g>
	<polygon fill="#FFFFFF" points="2.2,12.6 9.2,8.7 2.2,4.8 	"/>
	<g opacity="0.85">
		<g>
			<g>
				<defs>
					<rect id="SVGID_7_" x="23.5" y="4.8" width="7" height="7.9"/>
				</defs>
				<clipPath id="SVGID_8_">
					<use xlink:href="#SVGID_7_"  overflow="visible"/>
				</clipPath>
				<polygon clip-path="url(#SVGID_8_)" fill="#FFFFFF" points="30.5,12.6 23.5,8.7 30.5,4.8 				"/>
			</g>
		</g>
	</g>
</g>
</svg>
